Coordinates
version=1
nRows=7
nColumns=40
inDegrees=yes

Units are S.I. units (second, meters, Newtons, ...)
If the header above contains a line with 'inDegrees', this indicates whether rotational values are in degrees (yes) or radians (no).

endheader
time	pelvis_tilt	pelvis_list	pelvis_rotation	pelvis_tx	pelvis_ty	pelvis_tz	hip_flexion_r	hip_adduction_r	hip_rotation_r	knee_angle_r	knee_angle_r_beta	ankle_angle_r	subtalar_angle_r	mtp_angle_r	hip_flexion_l	hip_adduction_l	hip_rotation_l	knee_angle_l	knee_angle_l_beta	ankle_angle_l	subtalar_angle_l	mtp_angle_l	lumbar_extension	lumbar_bending	lumbar_rotation	arm_flex_r	arm_add_r	arm_rot_r	elbow_flex_r	pro_sup_r	wrist_flex_r	wrist_dev_r	arm_flex_l	arm_add_l	arm_rot_l	elbow_flex_l	pro_sup_l	wrist_flex_l	wrist_dev_l
      0.44444444	     11.06234769	    -23.75252959	    -89.94195424	      0.16826573	      1.02923954	      0.23966067	     -5.21853895	    -16.89692620	     -9.61920997	     41.91730497	      0.73159499	     23.26074194	      0.00000000	      0.00000000	     39.30318536	      7.35646829	     12.07180890	     86.78101444	      1.51461443	     -4.75419779	      0.00000000	      0.00000000	    -36.76381145	     -5.18393864	    -17.15780601	      1.54559692	    -21.73570984	     15.99688375	    115.54465384	     73.35720735	      0.00000000	      0.00000000	     20.78521898	    -18.85062333	     38.94261190	     99.73276227	     45.56439284	      0.00000000	      0.00000000
      0.44722222	     11.22038562	    -23.96366569	    -89.94248529	      0.16844063	      1.03014683	      0.23940054	     -5.54502187	    -17.11201963	     -9.73146103	     41.69880055	      0.72778136	     23.20590779	      0.00000000	      0.00000000	     39.82505065	      7.49648681	     11.61365621	     87.41047813	      1.52560064	     -4.62821797	      0.00000000	      0.00000000	    -36.98648610	     -5.28919658	    -17.31785601	      1.82790095	    -21.83128418	     15.91932681	    115.78695990	     73.36217930	      0.00000000	      0.00000000	     21.14145731	    -18.86291670	     38.91969822	     99.91715573	     45.58385353	      0.00000000	      0.00000000
      0.45000000	     11.52259337	    -24.24289031	    -89.94250604	      0.16871383	      1.03126307	      0.23907083	     -5.92752294	    -17.52396670	     -9.89061429	     41.46960269	      0.72378111	     23.14530403	      0.00000000	      0.00000000	     40.23300891	      7.73429564	     11.03385674	     87.94745104	      1.53497259	     -4.53050344	      0.00000000	      0.00000000	    -37.29958173	     -5.52498698	    -17.50984910	      2.11395716	    -21.92168530	     15.81025285	    116.05784286	     73.36440132	      0.00000000	      0.00000000	     21.52824224	    -18.87728300	     38.92732608	    100.08412135	     45.60385791	      0.00000000	      0.00000000
      0.45277778	     11.71912778	    -24.47652086	    -89.94281227	      0.16887966	      1.03218884	      0.23882089	     -6.25655612	    -17.77259238	     -9.94909740	     41.28641903	      0.72058395	     23.09214681	      0.00000000	      0.00000000	     40.71499864	      7.87302708	     10.53762087	     88.57029790	      1.54584332	     -4.41083410	      0.00000000	      0.00000000	    -37.53962824	     -5.67395793	    -17.67557745	      2.38671190	    -21.97866447	     15.69878985	    116.26617460	     73.36662376	      0.00000000	      0.00000000	     21.90799688	    -18.88260634	     38.89400057	    100.24839621	     45.62215487	      0.00000000	      0.00000000
      0.45555556	     11.86216968	    -24.68091976	    -89.94303586	      0.16918073	      1.03314549	      0.23832724	     -6.52423671	    -17.96586417	    -10.00751664	     41.11770408	      0.71763932	     23.04661186	      0.00000000	      0.00000000	     41.23222064	      7.99950788	     10.09909182	     89.14333095	      1.55584463	     -4.29711166	      0.00000000	      0.00000000	    -37.78161251	     -5.74972228	    -17.84318932	      2.73139305	    -22.00481093	     15.54603871	    116.46694254	     73.36493954	      0.00000000	      0.00000000	     22.30589258	    -18.86769974	     38.83285115	    100.38364190	     45.63531557	      0.00000000	      0.00000000
      0.45833333	     12.99191246	    -25.38497788	    -89.94283201	      0.16901946	      1.03515585	      0.23821015	     -7.33853701	    -19.33661955	    -10.13198556	     40.84318450	      0.71284805	     22.98546973	      0.00000000	      0.00000000	     41.02508292	      8.68472952	      8.78117731	     89.38250513	      1.56001901	     -4.24824396	      0.00000000	      0.00000000	    -38.53677869	     -6.86234328	    -18.16718953	      2.90688493	    -22.06873383	     15.42677984	    116.76456548	     73.40272231	      0.00000000	      0.00000000	     22.76019571	    -18.98828253	     38.94810900	    100.62691297	     45.64803660	      0.00000000	      0.00000000
      0.46111111	     13.07708370	    -25.57900614	    -89.94301981	      0.16931396	      1.03606119	      0.23775288	     -7.59239846	    -19.45062876	    -10.15888782	     40.70332992	      0.71040712	     22.94470230	      0.00000000	      0.00000000	     41.55900176	      8.74470834	      8.37044596	     89.96750760	      1.57022923	     -4.12944114	      0.00000000	      0.00000000	    -38.75857849	     -6.88543941	    -18.34511372	      3.25973848	    -22.06765424	     15.27392757	    116.95025348	     73.40146969	      0.00000000	      0.00000000	     23.15190669	    -18.96536910	     38.85806351	    100.73886165	     45.65230475	      0.00000000	      0.00000000
